<svg width="1386" height="1015" xmlns="http://www.w3.org/2000/svg"><g fill="none" fill-rule="evenodd"><path fill="#D5D7D8" d="M1269.115 947.339h-90.299l-12.027-175.956h115.07z"/><path d="M1199.881 732.773s14.318-70.775-14.326-99.393c-28.645-28.618-44.979-38.86-44.979-38.86s-53.224 85.08 59.305 138.253zM1206.428 535.344s14.318-70.775-14.326-99.402c-28.645-28.626-44.979-38.86-44.979-38.86s-53.224 85.08 59.305 138.262z" fill="#ECEDF1"/><path d="M1217.065 420.263s12.552-46.087-11.187-72.265c-23.738-26.179-49.376-32.724-49.376-32.724s-3.273 72.54 60.563 104.99z" fill="#D5D7D8"/><path d="M1239.979 695.554s-5.731-102.674 62.611-145.622c0 0 .442 121.067-62.611 145.622z" fill="#ECEDF1"/><path d="M1223.678 633.646s-8.246-71.44-60.446-92.94c0-.017 14.077 83.49 60.446 92.94zM1252.664 512.712s-41.33-73.223 42.546-127.628c0 0 32.202 91.591-42.546 127.628z" fill="#D5D7D8"/><path d="M1203.463 379.355s23.147 45.271 23.147 114.54V597.01M1182.423 480.805s19.366 34.63 24.005 54.539c4.64 19.908 8.613 83.714 8.613 148.345v140.717M1175.876 679.875s21.656 34.63 24.005 52.898c2.35 18.269 0 93.673 0 93.673" stroke="#D5D7D8" stroke-width="2" stroke-linecap="round"/><path d="M1205.404 607.834s13.018 15.82 18.274 25.812 9.554 45.796 9.554 61.925v120.26M1269.031 457.483s-16.367 31.907-16.367 55.23v303.084" stroke="#D5D7D8" stroke-width="2" stroke-linecap="round"/><path fill="#D5D7D8" d="M672.194.083h1.583v44.996h-1.583zM741.435 45.08h1.583v44.996h-1.583zM694.25 90.076h1.583v44.996h-1.583z"/><path fill="#D5D7D8" d="M609.332 44.289h202.686v1.582H609.332zM587.834 89.285H790.52v1.582H587.834zM642.558 134.281h202.686v1.582H642.558zM803.88 396.025h1.583v44.996h-1.583zM873.114 441.021h1.583v44.996h-1.583zM825.936 486.018h1.583v44.996h-1.583z"/><path fill="#D5D7D8" d="M741.019 440.23h202.686v1.582H741.019zM719.52 485.227h202.687v1.582H719.52zM774.236 530.223h202.686v1.582H774.236zM248.222 186.763h1.583v44.996h-1.583zM317.464 231.76h1.583v44.996h-1.583zM270.279 276.756h1.583v44.996h-1.583z"/><path fill="#D5D7D8" d="M185.36 230.969h202.687v1.582H185.36zM163.87 275.965h202.687v1.582H163.87zM218.587 320.961h202.686v1.582H218.587z"/><path fill="#ECEDF1" d="M1165.015 66.654v137.12H944.929V66.654z"/><path d="M1184.014 220.203H925.93V50.217h258.084v169.986zm-257.293-.833h256.543V51.058H926.721V219.37z" fill="#DFE1EE" fill-rule="nonzero"/><path d="M1047.73 969.854s124.873-.891 115.502 18.976c-9.37 19.867-269.545 24.93-331.507 25.937-61.962 1.007-434.966-19.592-485.483-23.44-50.518-3.846-136.993-30.807 43.704-31.84 106.998-.624 657.783 10.367 657.783 10.367z" fill="#DCDCDD"/><path d="M227.266 260.336s442.828 4.53 403.889 114.756c-38.94 110.226-256.71 138.22-121.542 196.314" stroke="#1F2055" stroke-width="2" stroke-linecap="round" stroke-dasharray="8"/><g transform="translate(0 67.445)"><path d="M348.74 497.35c-45.378-8.976-66.934-42.657-66.934-42.657s23.322 104.181 42.221 174.69c10.67 39.868 8.122 112.89 3.899 168.837a4.48 4.48 0 00-3.915 4.454v8.227a4.455 4.455 0 002.549 4.022l40.655 5.054a4.447 4.447 0 002.807-2.931l2.357-7.927a4.462 4.462 0 00-1.216-4.521c14.093-54.264 42.805-161.684 44.47-203.625l2.25-54.672s-23.773-39.967-69.142-48.951zM496.528 833.432c3.94-.216 4.606-9.384 4.606-13.322 0-3.938-4.606-5.22-4.606-5.22s2.249-74.606 0-105.14c-2.25-30.533-78.612-163.449-78.612-163.449s38.181 125.73 50.317 172.442c7.18 27.653 12.494 64.589 14.935 96.088a4.54 4.54 0 00-4.165 4.904l.833 9.8a4.547 4.547 0 004.531 4.164l12.028-.092c-.225-.125-.184-.125.133-.175z" fill="#2F3E8B"/><path d="M523.407 829.86l1.307-8.393a4.53 4.53 0 00-2.54-4.804c5.339-55.296 13.277-162.234 5.356-202.55-10.337-52.54-26.504-170.202-26.504-170.202l-219.22 10.824s21.556 33.68 66.935 42.657c45.378 8.976 69.175 48.951 69.175 48.951s76.371 132.924 78.612 163.466c2.24 30.541 0 105.139 0 105.139s4.606 1.29 4.606 5.22c0 3.93-.666 13.09-4.606 13.323-.317 0-.358.083-.167.183l24.105-.183a4.547 4.547 0 002.94-3.63z" fill="#1F2055"/><path d="M325.26 829.594l38.315 6.42v-.034c.275-2.173 1.6-7.81 3.673-15.995l-40.655-5.054c-.458 5.104-.916 10.017-1.333 14.663zM496.361 833.616l-12.027.091c.325 7.36.45 14.155.358 20.159 2.499-.109 5.955-.242 9.945-.4l1.724-19.85z" fill="#F37878"/><path d="M518.542 849.428c.392-2.498 1.075-8.077 1.924-15.996l-24.105.184-1.724 19.85c7.13-.283 15.9-.608 23.672-.833a18.529 18.529 0 01.233-3.205z" fill="#F15859"/><path d="M487.099 814.906l31.218 1.515M502.708 811.7s1.724-107.778-8.07-152.683c-9.796-44.905-35.109-152.683-35.109-152.683" stroke="#0E142D" stroke-width="2" stroke-linecap="round"/><path d="M329.641 798.678l37.59 5.162M348.44 794.19s27.696-119.003 27.696-185.914c0-66.912-17.159-108.245-17.159-108.245" stroke="#CAE2F2" stroke-width="2" stroke-linecap="round"/><path d="M524.381 255.623c16.659 1.516 57.63 18.968 41.397-41.399-18.708-37.794-49.618-77.794-58.239-87.545l-19.29 14.155c13.918 29.843 30.526 78.036 30.526 78.036s-26.953-21.557-46.827-40.758c-19.874-19.2-79.179-36.711-79.179-36.711s-59.304-12.282-92.08 29.042c-3.107 3.914-5.83 9.626-8.105 16.762 0 0 56.173 24.98 81.778 97.286 25.604 72.308 40.88 154.932 126.68 159.42l-14.418-150.319-7.163-76.012s28.303 36.486 44.92 38.043z" fill="#FFF"/><path d="M579.071 272.035c4.498-14.105-2.282-35.596-13.326-57.844 16.233 60.367-24.772 42.915-41.397 41.4-16.626-1.516-44.92-38.011-44.92-38.011l7.163 76.012s80.353 16.503 92.48-21.557zM374.345 284.491c-25.604-72.299-81.777-97.286-81.777-97.286-22.181 68.344-10.762 267.488-10.762 267.488s26.504 21.108 87.183 27.411c60.68 6.303 132.078-38.177 132.078-38.177-85.842-4.504-101.118-87.128-126.722-159.436z" fill="#C9E2F4"/><path d="M.591 843.308s40.43-.358 114.212-99.227c73.781-98.87 142.29-192.867 303.113-217.089" stroke="#222154" stroke-width="19"/><ellipse fill="#FDB714" transform="rotate(-6.42 436.42 533.366)" cx="436.42" cy="533.366" rx="49.085" ry="84.131"/><path d="M505.965 543.254c9.47 1.532 25.33 19.526 39.073 40.192l-19.624-174.299-85.242 13.448c-11.087 1.224-20.374 10.716-26.996 25.637 0 0 71.224 91.517 92.789 95.022z" fill="#F7B219"/><path d="M403.73 537.592c6.814 60.484 34.151 107.062 61.105 104.031a24.413 24.413 0 001.74-.275l83.494-13.172-4.998-44.73c-13.743-20.666-29.602-38.66-39.073-40.192-21.564-3.505-92.788-95.022-92.788-95.022-9.488 21.324-13.486 53.78-9.48 89.36z" fill="#E0A126"/><ellipse fill="#FDB714" transform="rotate(-6.42 537.724 518.67)" cx="537.724" cy="518.67" rx="49.085" ry="110.202"/><ellipse fill="#E0A126" transform="rotate(-6.42 536.085 483.222)" cx="536.085" cy="483.222" rx="7.246" ry="13.189"/><ellipse fill="#E0A126" transform="rotate(-6.42 546.531 563.053)" cx="546.531" cy="563.053" rx="7.246" ry="13.189"/><path d="M501.026 419.556s-17.992 33.505-19.85 57.927c-1.857 24.422 7.556-36.378 0-39.41-7.554-3.03-50.791-14.146 19.85-18.517z" fill="#FE9"/><path d="M630.53 464.752c-1.266-3.714-4.373-6.187-7.638-5.754l-87.616 11.45c-2.874.374-4.69 4.62-4.057 9.483.17 1.301.517 2.573 1.033 3.78 16.692-1.607 90.365-9.1 98.278-18.96zM641.458 549.94c.243-1.18.286-2.394.125-3.589-.633-4.862-4.281-8.401-8.146-7.893l-87.633 11.449c-2.09.275-3.606 2.581-4.048 5.679 16.426.266 78.829.824 99.702-5.646z" fill="#2F3E8B"/><path d="M537.583 488.058l87.633-11.45c3.865-.507 6.48-4.862 5.83-9.725a11.054 11.054 0 00-.508-2.131c-7.937 9.858-81.627 17.377-98.286 18.96 1.233 2.822 3.274 4.612 5.331 4.346zM541.74 559.39c.64 4.863 3.49 8.502 6.363 8.127l87.641-11.449c2.865-.374 4.998-2.872 5.714-6.128-20.873 6.47-83.293 5.912-99.702 5.646a13.817 13.817 0 00-.017 3.805z" fill="#1F2055"/><g><path d="M477.887 87.803c-.675 10.55 7.413 48.052 29.652 38.843-13.702-15.496-17.075-37.27-17.3-43.78-.225-6.512-13.477-30.093-19.882-30.16a1.74 1.74 0 00-1.49.908c2.923 7.61 9.545 25.937 9.02 34.189zM464.185 521.83c11.236 16.836 34.2 18.635 34.2 18.635 1.208-8.585-18.058-35.87-19.066-38.56-1.007-2.69 14.818 0 18.192-2.365 3.373-2.365-3.032-6.561-18.7-11.782-11.044-3.68-16.658-7.277-30.085-23.006l-18.783 18.684s23.014 21.55 34.242 38.394z" fill="#F37878"/><path d="M498.385 540.465s-22.964-1.799-34.2-18.635c-11.236-16.836-34.242-38.394-34.242-38.394 11.12 11.308 30.094 41.15 35.05 46.254 5.73 5.887 32.176 19.36 33.392 10.775zM470.699 88.927c-2.5 1.349-7.863 16.162 5.614 30.983 3.273 3.597 7.496 11.29 11.927 20.874l19.29-14.155c-22.238 9.21-30.326-28.31-29.652-38.843.525-8.251-6.097-26.578-9.02-34.188-3.682 5.628 1.84 35.329 1.84 35.329z" fill="#F15859"/><path d="M448.726 464.752c-5.63-6.578-12.627-15.288-21.973-27.011-31.651-39.743-60.979-135.056-69.741-195.348-8.763-60.293-44.146-77.803-44.146-77.803-18.874 3.147-44.329 28.377-39.39 121.783 4.94 93.407 142.499 188.08 151.936 193.3a22.43 22.43 0 014.531 3.763l18.783-18.684z" fill="#FFF"/></g><g><path d="M421.739 59.85c-10.828-3.563-20.557 6.845-20.557 6.845-.015-2.986.191-5.97.616-8.926-.4.566-.616.9-.616.9s-5.722-14.314-11.96-5.73c-6.24 8.585 3.198 19.202 3.198 19.202.674 8.593-18.192 56.079-22.398 66.179-4.206 10.1 4.373 16.653 19.366 28.127a19.493 19.493 0 006.963 3.472c.117 0 19.849-2.573 10.22-20.259-9.629-17.685-3.931-32.107-3.931-32.107l11.51 7.802s16.476 8.76 25.638 2.04c9.163-6.72 18.325-61.358 18.325-61.358-.433-.982-.833-1.923-1.3-2.847-9.953 2.181-26.57-.541-35.074-3.34z" fill="#F37878"/><path d="M406.571 149.66c9.629 17.703-10.095 20.242-10.22 20.259 12.56 3.23 23.689-9.16 20.823-15.596-3.373-7.577-3.04-28.968-3.04-28.968l-11.511-7.802s-5.706 14.372 3.948 32.107zM401.798 57.77a60.572 60.572 0 00-.616 8.925s9.729-10.408 20.557-6.844c8.504 2.798 25.121 5.52 35.083 3.33-22.68-47.935-50.56-11.74-55.024-5.412z" fill="#F15859"/><path d="M479.91 10.117c-11.002-3.148-20.664 3.813-20.664 3.813s-11.661-25.37-28.078-6.286c-16.417 19.084-18.417 10.774-29.986 10.999-11.57.225-18.083 2.698-17.633 12.348.45 9.65-24.938 13.248-14.601 29.643l2.29 3.613c-7.713-16.486 3.665-6.927 7.713-18.043s21.223 4.046 28.045-3.198c6.822-7.244 14.068 2.19 20.465 11.657 6.397 9.468 23.472 13.14 23.472 13.14a18.093 18.093 0 0014.16-7.494c14.818-19.659 25.82-47.053 14.818-50.192z" fill="#2F3E8B"/><path d="M427.461 54.63c-6.397-9.434-13.652-18.86-20.465-11.657-6.813 7.202-24.005-7.91-28.045 3.197-4.04 11.108-15.426 1.557-7.713 18.044 9.162 14.488 15.734 25.17 12.286 39.134 0 0 12.269-27.852 10.92-30.55 0 0-8.196-8.759-5.673-15.603 2.524-6.845 10.204-2.074 12.411 1.457v8.027s5.73-14.155 12.352-12.798c4.89.99 22.49 14.621 37.4 13.872 0 0-17.068-3.697-23.473-13.123z" fill="#1F2055"/></g><g><path d="M496.87 896.13l3.83 2.607h87.134c-9.779-7.444-25.271-18.518-35.6-22.79-15.109-6.294-33.742-9.067-33.925-23.314-7.771.25-16.542.575-23.672.833 0 0-5.18 37.61 2.232 42.665z" fill="#1F2055"/><path d="M500.7 898.737l-3.83-2.606c-7.414-5.054-2.233-42.665-2.233-42.665-3.99.158-7.496.291-9.945.4-.083 5.17-.325 9.733-.741 13.522-1.666 15.42-2.982 25.404-3.824 31.35h20.574z" fill="#2D4087"/><path d="M594.422 903.825a502.847 502.847 0 00-6.588-5.088H480.127c-.733 5.146-1.116 7.27-1.116 7.27h114.645a1.224 1.224 0 00.766-2.182z" fill="#C9E1F2"/><path d="M528.42 866.597l-5.613 5.953M534.526 869.378l-5.064 6.728M539.807 871.351l-4.698 6.928" stroke="#CAE2F2" stroke-width="2" stroke-linecap="round"/><path d="M429.843 902.367c-5.83-10.49-16.708-27.594-26.304-29.142-13.901-2.24-41.696-22.848-39.98-37.211l-38.315-6.42c-1.783 18.86-3.457 33.306-4.29 40.175 5.18 3.647 46.644 32.29 76.846 32.607 14.002.141 24.539-.192 32.043-.009z" fill="#2F3E8B"/><path d="M381.533 906.006c23.097 4.746 39.731 5.038 47.552 4.788a3.224 3.224 0 002.757-4.73 155.13 155.13 0 00-1.999-3.697c-7.496-.183-18.041.15-32.026 0-30.169-.316-71.632-28.96-76.846-32.606-.334 2.823-.533 4.355-.533 4.355s28.303 25.146 61.095 31.89z" fill="#C9E1F2"/><path d="M370.488 852.042l-16.975 2.831M375.011 856.763l-17.458 5.18M379.834 860.918l-17.833 6.412" stroke="#CAE2F2" stroke-width="2" stroke-linecap="round"/></g></g><g transform="translate(770.463 101.583)"><path d="M309.168 827.937l-36.65 6.236-7.945-30.874 40.389-6.811c.65 5.096 3.565 26.828 4.206 31.449z" fill="#F15859"/><path d="M135.96 822.383c-3.94-.041-4.998-9.159-5.181-13.097-.183-3.939 4.373-5.413 4.373-5.413s-5.49-74.439-4.573-105.038c.916-30.6 71.424-166.73 71.424-166.73S169.327 659.384 159.24 706.57c-5.964 27.944-9.645 65.071-10.736 96.646a4.548 4.548 0 014.39 4.72l-.376 9.826a4.539 4.539 0 01-4.348 4.363l-12.01.433c.166-.108.124-.175-.2-.175z" fill="#1F2055"/><path d="M108.948 819.985l-1.666-8.326a4.554 4.554 0 012.332-4.921c-7.746-55.005-20.332-161.534-14.16-202.118 8.038-52.94 19.074-171.193 19.074-171.193l219.478 1.216s-20.074 34.588-64.969 45.538c-44.895 10.95-66.984 51.907-66.984 51.907s-70.508 136.122-71.424 166.73c-.916 30.608 4.573 105.039 4.573 105.039s-4.54 1.49-4.373 5.412c.166 3.922 1.24 13.056 5.18 13.097.325 0 .367.067.184.175l-24.097.833a4.572 4.572 0 01-3.148-3.389z" fill="#2F3E8B"/><path d="M307.927 799.427c-.108-2.298-.7-2.381-2.882-2.573-6.664-55.704-14.551-145.539-5.63-185.83 15.783-71.259 34.591-176.38 34.591-176.38l-135.985-.542 3.99 97.986 4.623 54.522c3.548 41.824 41.738 164.082 58.164 217.655a4.162 4.162 0 00-.983 4.38l2.224 7.252s1.907 5.304 3.24 5.712l38.173-6.437c1.483-.832 1.191-5.603 1.116-7.36l-.641-8.385z" fill="#1F2055"/><path d="M136.143 822.558l12.01-.433c0 7.369.176 14.155.525 20.15h-9.995l-2.54-19.717z" fill="#F15859"/><path d="M114.67 839.31c-.5-2.497-1.424-8.018-2.624-15.894l24.097-.833 2.582 19.759c-7.13 0-15.91.083-23.68.166a19.145 19.145 0 00-.375-3.197z" fill="#F37878"/><path d="M144.58 803.465l-31.126 2.865M128.846 800.942s-6.413-107.603 1.408-152.89c7.821-45.289 28.436-154.04 28.436-154.04" stroke="#CAE2F2" stroke-width="2" stroke-linecap="round"/><path d="M302.946 797.22l-36.557 6.653M284.505 796.796S249.347 659.05 246.44 592.197c-2.907-66.853 12.435-108.919 12.435-108.919" stroke="#0E142D" stroke-width="2" stroke-linecap="round"/><path d="M336.563 129.477c16.509-24.888-82.21-45.163-78.837-67.395 3.373-22.231-39.423-12.797-38.415-36.578.45-10.45-3.798-16.486-10.645-19.634a31.51 31.51 0 00-8.879-2.406c-56.598-13.63-62.47 19.983-62.47 19.983-4.514 4.63-12.385 10.5-14.66 16.062-6.738 16.528 4.948 22.565 11.57 30.983s11.753 25.354-4.49 34.355c-25.554 14.155 13.477 24.255-7.754 39.41-21.231 15.154 4.265 41.765 4.265 41.765s176.323 11.45 204.968-7.41c28.644-18.86 5.347-49.135 5.347-49.135z" fill="#2F3E8B"/><path d="M208.533 48.951s17.183 35.696 35.716 36.038c18.533.34 7.405 25.595 34.7 34.013s44.146-18.451 57.614 10.475c0 0 25.604-11.657 20.215 16.711-5.389 28.369-22.63 58.286-45.178 60.184-22.547 1.899-186.085 19.276-187.193-23.78-1.108-43.057 26.854-33.031 29.21-54.539 2.358-21.507-16.25-48.868-6.946-69.376 9.304-20.508 61.862-9.726 61.862-9.726z" fill="#1F2055"/><path d="M234.137 268.654c22.44-73.348 77.463-100.75 77.463-100.75 25.138 67.311 22.406 266.74 22.406 266.74s-25.554 22.24-85.867 31.157c-60.313 8.918-133.61-32.39-133.61-32.39 85.516-8.202 97.178-91.417 119.608-164.757zM126.206 206.372s-33.576 96.53-41.647 113.59c-8.07 17.061-21.83 44.047-21.847 44.13-7.822 52.782-8.73 85.023-8.73 85.023s-10.136 18.86-16.9 30.308c-6.763 11.449 11.286-.674 11.861 1.665.575 2.34-11.553 43.298-1.45 40.525 10.104-2.772 34.034-24.271 34.368-51.765.333-27.495 0-27.478 6.388-47.362 2.566-7.926 15.21-28.684 29.594-52.773l4.531-87.07 3.832-76.27z" fill="#C9E2F4"/><path d="M302.78 151.542c-34.559-39.859-93.29-25.054-93.29-25.054s-42.429 14.571-66.767 31.274a13.991 13.991 0 00-3.123 2.948c-2.441 3.18-8.088 10.774-15.21 21.923a406.052 406.052 0 00-31.243 59.16 338.155 338.155 0 00-20.748 66.254 1182.14 1182.14 0 00-9.712 56.046c0-.042 13.76-27.036 21.847-44.13 8.088-17.095 41.647-113.59 41.647-113.59l-3.84 76.245-4.506 87.078-3.332 63.74c85.526-8.218 97.187-91.433 119.618-164.773 22.43-73.34 77.462-100.75 77.462-100.75-2.565-7.045-5.539-12.64-8.804-16.37z" fill="#FFF"/><path d="M615.296 829.894s-40.43-.358-114.212-99.227c-73.781-98.87-142.29-192.842-303.113-217.089" stroke="#2E3F8B" stroke-width="19"/><ellipse fill="#FDB714" transform="rotate(-83.58 162.555 512.228)" cx="162.555" cy="512.228" rx="84.131" ry="49.085"/><path d="M93.039 522.138c-9.463 1.532-25.33 19.526-39.065 40.2L73.59 388.015l85.242 13.447c11.086 1.249 20.373 10.716 26.995 25.637 0 0-71.224 91.534-92.788 95.039z" fill="#F7B219"/><path d="M195.273 516.476c-6.805 60.484-34.15 107.062-61.104 104.031a24.414 24.414 0 01-1.741-.275L48.935 607.06l4.997-44.722c13.735-20.674 29.603-38.668 39.065-40.2 21.606-3.505 92.83-94.989 92.83-94.989 9.454 21.291 13.452 53.756 9.446 89.327z" fill="#E0A126"/><ellipse fill="#FDB714" transform="rotate(-83.58 61.254 497.536)" cx="61.254" cy="497.536" rx="110.202" ry="49.085"/><ellipse fill="#B97F2B" transform="rotate(-83.58 62.893 462.092)" cx="62.893" cy="462.092" rx="13.189" ry="7.246"/><ellipse fill="#B97F2B" transform="rotate(-83.58 52.446 541.901)" cx="52.446" cy="541.901" rx="13.189" ry="7.246"/><g><path d="M154.709 509.665c-10.487 17.31-33.317 20.108-33.317 20.108-1.583-8.526 16.475-36.636 17.375-39.359.9-2.723-14.818.65-18.325-1.565-3.507-2.215 2.74-6.662 18.166-12.59 10.878-4.163 16.317-7.993 29.061-24.288l19.583 17.852s-22.056 22.531-32.543 39.842z" fill="#F37878"/><path d="M121.358 529.773s22.864-2.797 33.318-20.108c10.453-17.31 32.55-39.842 32.55-39.842-10.628 11.782-28.32 42.415-33.017 47.727-5.43 6.137-31.268 20.75-32.85 12.223z" fill="#F15859"/><path d="M167.678 451.97c5.33-6.819 11.944-15.82 20.765-27.943 29.91-41.083 55.048-137.579 61.179-198.17 6.13-60.593 40.705-79.652 40.705-79.652 18.983 2.323 45.52 26.42 44.654 119.951-.867 93.532-134.17 194.083-143.365 199.712a21.878 21.878 0 00-4.356 3.955l-19.582-17.852z" fill="#FFF"/></g><g><path d="M196.072 135.347c-8.854 18.085 10.978 19.784 11.095 19.792-12.41 3.78-24.063-8.151-21.498-14.68 3.04-7.71 1.774-29.067 1.774-29.067l11.161-8.327s6.347 14.139-2.532 32.282z" fill="#F15859"/><path d="M232.097 122.4c-4.648-9.909-25.563-56.53-25.263-65.139 0 0 8.962-11.007 2.365-19.317-6.596-8.31-11.702 6.236-11.702 6.236s-.234-.324-.658-.832c-4.731-6.129-34.15-41.075-54.732 7.793-.392.941-.783 1.907-1.175 2.906 0 0 13.577 51.4 22.956 57.728 9.379 6.328 23.555-.366 23.555-.366l11.161-8.327s6.347 14.105-2.498 32.249c-8.846 18.143 10.978 19.783 11.094 19.792a19.493 19.493 0 006.805-3.772c14.443-12.074 22.74-19.01 18.092-28.951z" fill="#F37878"/></g><g><path d="M138.2 883.183l-3.715 2.773-87.058 3.789c9.496-7.86 24.447-19.601 34.575-24.347 14.826-6.944 33.318-10.517 32.884-24.763 7.772-.092 16.55-.142 23.68-.175 0 .008 6.822 37.353-.366 42.723z" fill="#2D4087"/><path d="M134.485 885.94l3.715-2.773c7.188-5.371.367-42.715.367-42.724h9.995c.308 5.163.741 9.709 1.324 13.48 2.357 15.33 4.09 25.247 5.19 31.159l-20.59.857z" fill="#1F2055"/><path d="M41.072 895.098a512.865 512.865 0 016.355-5.37l87.058-3.789 20.557-.89c.95 5.104 1.424 7.21 1.424 7.21l-32.31 1.407-82.226 3.58a1.224 1.224 0 01-.858-2.148z" fill="#C9E1F2"/><path d="M105.391 855.048l5.864 5.704M99.419 858.095l5.347 6.495M94.221 860.294l4.998 6.72" stroke="#CAE2F2" stroke-width="2" stroke-linecap="round"/><path d="M309.168 827.937l-36.65 6.236s-5.272 15.738-24.437 24.747c-12.095 5.687-22.49 15.47-28.578 21.923 18.75-.832 79.495-3.555 101.101-6.66-2.84-13.973-11.436-46.246-11.436-46.246z" fill="#1E204D"/><path d="M321.512 879.678a43.284 43.284 0 00-.883-5.504c-21.606 3.114-82.352 5.87-101.101 6.661-3.54 3.772-5.58 6.403-5.58 6.403s107.814-.932 107.564-7.56z" fill="#C9E1F2"/><path d="M265.714 845.406l7.055 4.796M261.15 850.202l7.462 4.83M255.919 854.39l6.521 4.571" stroke="#CAE2F2" stroke-width="2" stroke-linecap="round"/></g><path d="M142.498 40.866s9.77 13.806 26.654 11.957c16.884-1.848 24.596 1.516 24.596 1.516l4.215 5.387-.425-15.52s-4.123-16.379-8.504-18.702c-4.381-2.323-24.638-13.439-35.774-8.018-11.137 5.42-26.78 28.118-21.565 37.552a882.124 882.124 0 0010.445 18.318s11.644-26.728.358-32.49z" fill="#2F3E8B"/></g><g transform="translate(124.107 87.428)"><ellipse fill="#F7B219" cx="1019.893" cy="33.631" rx="33.092" ry="33.081"/><path d="M1013.996 48.294c-.884 0-1.732-.35-2.358-.975l-10.828-10.824a3.332 3.332 0 010-4.713 3.334 3.334 0 014.715 0l8.487 8.485 19.333-19.326a3.337 3.337 0 015.583 1.49 3.335 3.335 0 01-.86 3.223l-21.657 21.69a3.332 3.332 0 01-2.415.95z" fill="#FFF"/><path d="M123.316 19.15h75.797c5.28 0 9.562 4.28 9.562 9.56v67.12a2.74 2.74 0 01-4.673 1.94L186.71 80.434a8.106 8.106 0 00-5.739-2.381h-57.655c-5.369 0-9.72-4.35-9.72-9.717V28.85c.013-5.358 4.36-9.695 9.72-9.7z" fill="#2F3E8B"/><path d="M132.486 36.637h54.14a3.514 3.514 0 013.5 3.505 3.506 3.506 0 01-3.5 3.497h-54.14a3.506 3.506 0 01-3.498-3.497 3.514 3.514 0 013.498-3.505zM153.718 56.67h32.859a3.506 3.506 0 013.498 3.497 3.506 3.506 0 01-3.498 3.497h-32.86a3.506 3.506 0 01-3.498-3.497 3.506 3.506 0 013.499-3.497z" fill="#1F2055"/><ellipse fill="#2F3E8B" transform="rotate(-.57 565.061 339.092)" cx="565.061" cy="339.092" rx="51.284" ry="51.416"/><path d="M587.85 359.946l-45.161.475v-6.595c-.018-4.081 2-7.904 5.38-10.191l8.605-5.829a15.735 15.735 0 018.43-28.993 15.742 15.742 0 0115.14 11.241 15.734 15.734 0 01-6.512 17.694l8.646 5.737a12.256 12.256 0 015.464 10.158l.009 6.303z" fill="#FFF"/><path d="M671.136 453.261s-102.293 38.177-45.687 53.54c56.606 15.362 397.31-107.23 397.31-107.23" stroke="#1F2055" stroke-width="2" stroke-linecap="round" stroke-dasharray="8"/><path fill="#1F2055" d="M76.172 188.678l-8.538 9.151L2.54 170.685z"/><path fill="#2F3E8B" d="M73.14 158.462l6.422 9.7-4.34 9.5 9.745 1.657 8.621 18.91L.45 170.06z"/><path fill="#1F2055" d="M75.222 177.662l4.34-9.5-50.443 2.356zM1030.746 399.489l8.546 9.159 65.093-27.145z"/><path fill="#2F3E8B" d="M1033.786 369.28l-6.43 9.692 4.348 9.51-9.754 1.656-8.612 18.91 93.138-28.177z"/><path fill="#1F2055" d="M1031.704 388.481l-4.348-9.509 50.45 2.365z"/></g></g></svg>